<svg preserveAspectRatio="none" width="100%" height="100%" overflow="visible" style="display: block;" viewBox="0 0 21 24" fill="none" xmlns="http://www.w3.org/2000/svg">
<g id="Frame">
<g clip-path="url(#clip0_0_10)">
<path id="Vector" d="M10.5 0C9.67031 0 9 0.670312 9 1.5V2.4C5.57812 3.09375 3 6.12187 3 9.75V10.6313C3 12.8344 2.18906 14.9625 0.726563 16.6125L0.379688 17.0016C-0.0140625 17.4422 -0.107812 18.075 0.13125 18.6141C0.370312 19.1531 0.909375 19.5 1.5 19.5H19.5C20.0906 19.5 20.625 19.1531 20.8688 18.6141C21.1125 18.075 21.0141 17.4422 20.6203 17.0016L20.2734 16.6125C18.8109 14.9625 18 12.8391 18 10.6313V9.75C18 6.12187 15.4219 3.09375 12 2.4V1.5C12 0.670312 11.3297 0 10.5 0ZM12.6234 23.1234C13.1859 22.5609 13.5 21.7969 13.5 21H10.5H7.5C7.5 21.7969 7.81406 22.5609 8.37656 23.1234C8.93906 23.6859 9.70312 24 10.5 24C11.2969 24 12.0609 23.6859 12.6234 23.1234Z" fill="var(--fill-0, #8C7851)"/>
</g>
</g>
<defs>
<clipPath id="clip0_0_10">
<path d="M0 0H21V24H0V0Z" fill="white"/>
</clipPath>
</defs>
</svg>
